<svg xmlns="http://www.w3.org/2000/svg" viewBox="0 0 1200 620" role="img" aria-labelledby="title desc">
  <title id="title">Autonomous sales recovery agent workflow</title><desc id="desc">Five stages connect transaction data to ambiguity detection, lead-time analysis, recovery strategy, and automated sales follow-up.</desc>
  <defs><marker id="a" markerWidth="10" markerHeight="10" refX="8" refY="5" orient="auto"><path d="M0 0L10 5L0 10Z" fill="#1d5b48"/></marker><style>.h{font-family:Arial,sans-serif;font-size:34px;font-weight:700;fill:#081a16}.k{font-family:Arial,sans-serif;font-size:12px;font-weight:700;fill:#1d5b48;letter-spacing:2px}.t{font-family:Arial,sans-serif;font-size:17px;font-weight:700;fill:#12211d}.p{font-family:Arial,sans-serif;font-size:13px;font-weight:400;fill:#66716d}.n{font-family:Arial,sans-serif;font-size:14px;font-weight:700;fill:#081a16}.cap{font-family:Arial,sans-serif;font-size:14px;font-weight:700;fill:#12211d}.small{font-family:Arial,sans-serif;font-size:12px;font-weight:400;fill:#66716d}</style></defs>
  <rect width="1200" height="620" rx="22" fill="#fbfaf6"/><text x="42" y="50" class="k">INTELLIGENT AUTOMATION · REVENUE OPERATIONS</text><text x="42" y="92" class="h">Autonomous sales recovery</text>
  <path d="M225 300H260M460 300H495M695 300H730M930 300H965" stroke="#1d5b48" stroke-width="3" marker-end="url(#a)"/>
  <g transform="translate(35 130)"><rect width="190" height="330" rx="18" fill="#fff" stroke="#cbd7d2"/><circle cx="28" cy="28" r="18" fill="#c8f169"/><text x="28" y="34" text-anchor="middle" class="n">1</text><g transform="translate(29 74)"><rect width="60" height="78" rx="7" fill="#e9f0ed"/><path d="M14 20h32M14 35h25M14 50h32" stroke="#1d5b48" stroke-width="5"/><ellipse cx="104" cy="52" rx="34" ry="13" fill="#1d5b48"/><path d="M70 52v41c0 7 15 13 34 13s34-6 34-13V52" fill="none" stroke="#1d5b48" stroke-width="5"/></g><text x="95" y="215" text-anchor="middle" class="t">Transaction data</text><text x="95" y="245" text-anchor="middle" class="p">Orders · payments</text><text x="95" y="265" text-anchor="middle" class="p">customer records</text></g>
  <g transform="translate(270 130)"><rect width="190" height="330" rx="18" fill="#fff" stroke="#cbd7d2"/><circle cx="28" cy="28" r="18" fill="#c8f169"/><text x="28" y="34" text-anchor="middle" class="n">2</text><g transform="translate(26 75)"><rect width="138" height="28" rx="6" fill="#e9f0ed"/><rect y="38" width="138" height="28" rx="6" fill="#e9f0ed"/><rect y="76" width="138" height="28" rx="6" fill="#e9f0ed"/><path d="M15 14h70M15 52h50M15 90h80" stroke="#1d5b48" stroke-width="5"/><circle cx="120" cy="14" r="9" fill="#e9815e"/><text x="120" y="18" text-anchor="middle" class="n">!</text><circle cx="120" cy="52" r="9" fill="#f0b446"/><text x="120" y="56" text-anchor="middle" class="n">?</text></g><text x="95" y="207" text-anchor="middle" class="t">Ambiguity</text><text x="95" y="228" text-anchor="middle" class="t">detection</text><text x="95" y="268" text-anchor="middle" class="p">Missing · conflicting</text><text x="95" y="288" text-anchor="middle" class="p">uncertain signals</text></g>
  <g transform="translate(505 130)"><rect width="190" height="330" rx="18" fill="#fff" stroke="#cbd7d2"/><circle cx="28" cy="28" r="18" fill="#c8f169"/><text x="28" y="34" text-anchor="middle" class="n">3</text><circle cx="95" cy="116" r="47" fill="#e9f0ed"/><circle cx="95" cy="116" r="33" fill="none" stroke="#1d5b48" stroke-width="5"/><path d="M95 116V91M95 116l21 13" stroke="#1d5b48" stroke-width="5" stroke-linecap="round"/><path d="M40 180l28-23 23 12 29-42 30 18" fill="none" stroke="#c8f169" stroke-width="4"/><text x="95" y="215" text-anchor="middle" class="t">Lead-time analysis</text><text x="95" y="245" text-anchor="middle" class="p">Timing · delay trends</text><text x="95" y="265" text-anchor="middle" class="p">follow-up windows</text></g>
  <g transform="translate(740 130)"><rect width="190" height="330" rx="18" fill="#fff" stroke="#cbd7d2"/><circle cx="28" cy="28" r="18" fill="#c8f169"/><text x="28" y="34" text-anchor="middle" class="n">4</text><rect x="58" y="75" width="74" height="58" rx="18" fill="#1d5b48"/><circle cx="80" cy="104" r="6" fill="#c8f169"/><circle cx="110" cy="104" r="6" fill="#c8f169"/><path d="M95 75V59M95 58h30M95 133v24M53 158h84" stroke="#1d5b48" stroke-width="4"/><path d="M56 158v22M83 158v22M110 158v22M137 158v22" stroke="#c8f169" stroke-width="5"/><text x="95" y="215" text-anchor="middle" class="t">Recovery strategy</text><text x="95" y="245" text-anchor="middle" class="p">Prioritize the</text><text x="95" y="265" text-anchor="middle" class="p">next-best action</text></g>
  <g transform="translate(975 130)"><rect width="190" height="330" rx="18" fill="#081a16"/><circle cx="28" cy="28" r="18" fill="#c8f169"/><text x="28" y="34" text-anchor="middle" class="n">5</text><g transform="translate(27 73)"><rect width="136" height="32" rx="6" fill="#123a30"/><rect y="42" width="136" height="32" rx="6" fill="#123a30"/><rect y="84" width="136" height="32" rx="6" fill="#123a30"/><path d="M14 16l8 8 15-17M14 58l8 8 15-17M14 100l8 8 15-17" fill="none" stroke="#c8f169" stroke-width="4"/><path d="M48 16h67M48 58h67M48 100h67" stroke="#fff" stroke-opacity=".55" stroke-width="5"/></g><text x="95" y="215" text-anchor="middle" class="t" style="fill:#fff">Sales follow-up</text><text x="95" y="245" text-anchor="middle" class="p" style="fill:#b9c8c3">Email · call · task</text><text x="95" y="265" text-anchor="middle" class="p" style="fill:#b9c8c3">or escalation</text></g>
  <g transform="translate(35 495)"><rect width="1130" height="86" rx="14" fill="#eef2ef"/><g transform="translate(25 22)"><circle cx="20" cy="20" r="20" fill="#c8f169"/><text x="52" y="18" class="cap">Intelligent</text><text x="52" y="38" class="small">detect ambiguity</text></g><g transform="translate(290 22)"><circle cx="20" cy="20" r="20" fill="#c8f169"/><text x="52" y="18" class="cap">Timely</text><text x="52" y="38" class="small">optimize follow-up</text></g><g transform="translate(565 22)"><circle cx="20" cy="20" r="20" fill="#c8f169"/><text x="52" y="18" class="cap">Actionable</text><text x="52" y="38" class="small">recommend next steps</text></g><g transform="translate(850 22)"><circle cx="20" cy="20" r="20" fill="#c8f169"/><text x="52" y="18" class="cap">Revenue focused</text><text x="52" y="38" class="small">recover lost sales</text></g></g>
</svg>
