<svg xmlns="http://www.w3.org/2000/svg" viewBox="0 0 1200 650" role="img" aria-labelledby="title desc">
  <title id="title">VOC inquiry intelligence architecture</title><desc id="desc">Email and call inputs move through transformation, classification, retrieval, agent reasoning, measurement, routing, monitoring, and Power BI.</desc>
  <defs><marker id="a" markerWidth="9" markerHeight="9" refX="7" refY="4.5" orient="auto"><path d="M0 0L9 4.5L0 9Z" fill="#c8f169"/></marker><style>.h{font-family:Arial,sans-serif;font-size:32px;font-weight:700;fill:#fff}.k{font-family:Arial,sans-serif;font-size:12px;font-weight:700;fill:#c8f169;letter-spacing:2px}.t{font-family:Arial,sans-serif;font-size:14px;font-weight:700;fill:#12211d}.p{font-family:Arial,sans-serif;font-size:11px;font-weight:400;fill:#66716d}.num{font-family:Arial,sans-serif;font-size:12px;font-weight:700;fill:#081a16}.dash{font-family:Arial,sans-serif;font-size:14px;font-weight:700;fill:#fff}.metric{font-family:Arial,sans-serif;font-size:24px;font-weight:700;fill:#c8f169}</style></defs>
  <rect width="1200" height="650" rx="22" fill="#081a16"/><text x="42" y="50" class="k">MULTI-CHANNEL · AGENTIC WORKFLOW</text><text x="42" y="92" class="h">VOC inquiry intelligence</text>
  <path d="M176 248H190M336 248H350M496 248H510M656 248H670M816 248H830M976 248H990" stroke="#c8f169" stroke-width="3" marker-end="url(#a)"/>
  <g transform="translate(30 130)"><rect width="146" height="235" rx="14" fill="#fff"/><circle cx="22" cy="22" r="15" fill="#c8f169"/><text x="22" y="27" text-anchor="middle" class="num">1</text><text x="73" y="65" text-anchor="middle" class="t">Input channels</text><circle cx="44" cy="105" r="20" fill="#1d5b48"/><path d="M31 99l13 10 13-10" fill="none" stroke="#fff" stroke-width="3"/><text x="73" y="145" text-anchor="middle" class="p">Email 3,000+</text><text x="73" y="163" text-anchor="middle" class="p">Calls 600+</text></g>
  <g transform="translate(190 130)"><rect width="146" height="235" rx="14" fill="#fff"/><circle cx="22" cy="22" r="15" fill="#c8f169"/><text x="22" y="27" text-anchor="middle" class="num">2</text><text x="73" y="65" text-anchor="middle" class="t">Transform</text><path d="M35 100h76M35 120h55M35 140h68M35 160h48" stroke="#1d5b48" stroke-width="6"/><text x="73" y="198" text-anchor="middle" class="p">Parse · normalize</text><text x="73" y="216" text-anchor="middle" class="p">merge channels</text></g>
  <g transform="translate(350 130)"><rect width="146" height="235" rx="14" fill="#fff"/><circle cx="22" cy="22" r="15" fill="#c8f169"/><text x="22" y="27" text-anchor="middle" class="num">3</text><text x="73" y="65" text-anchor="middle" class="t">Classify</text><circle cx="45" cy="115" r="20" fill="#c8f169"/><circle cx="100" cy="115" r="20" fill="#1d5b48"/><path d="M45 92v46M22 115h46" stroke="#081a16" stroke-width="4"/><path d="M91 115l7 7 13-16" fill="none" stroke="#fff" stroke-width="4"/><text x="73" y="170" text-anchor="middle" class="p">Intent · topic</text><text x="73" y="188" text-anchor="middle" class="p">sentiment · urgency</text></g>
  <g transform="translate(510 130)"><rect width="146" height="235" rx="14" fill="#fff"/><circle cx="22" cy="22" r="15" fill="#c8f169"/><text x="22" y="27" text-anchor="middle" class="num">4</text><text x="73" y="65" text-anchor="middle" class="t">Multi-RAG</text><ellipse cx="65" cy="105" rx="34" ry="13" fill="#1d5b48"/><path d="M31 105v48c0 7 15 13 34 13s34-6 34-13v-48M31 129c0 7 15 13 34 13s34-6 34-13" fill="none" stroke="#1d5b48" stroke-width="5"/><circle cx="109" cy="158" r="17" fill="none" stroke="#081a16" stroke-width="5"/><path d="M121 170l14 14" stroke="#081a16" stroke-width="5"/><text x="73" y="205" text-anchor="middle" class="p">Business context</text></g>
  <g transform="translate(670 130)"><rect width="146" height="235" rx="14" fill="#fff"/><circle cx="22" cy="22" r="15" fill="#c8f169"/><text x="22" y="27" text-anchor="middle" class="num">5</text><text x="73" y="65" text-anchor="middle" class="t">Agent reasoning</text><rect x="40" y="92" width="66" height="55" rx="18" fill="#1d5b48"/><circle cx="59" cy="118" r="5" fill="#c8f169"/><circle cx="87" cy="118" r="5" fill="#c8f169"/><path d="M57 135h32M73 92V78" stroke="#c8f169" stroke-width="4"/><circle cx="73" cy="74" r="5" fill="#c8f169"/><text x="73" y="185" text-anchor="middle" class="p">Understand context</text><text x="73" y="203" text-anchor="middle" class="p">decide next action</text></g>
  <g transform="translate(830 130)"><rect width="146" height="235" rx="14" fill="#fff"/><circle cx="22" cy="22" r="15" fill="#c8f169"/><text x="22" y="27" text-anchor="middle" class="num">6</text><text x="73" y="65" text-anchor="middle" class="t">Measure</text><rect x="35" y="91" width="76" height="88" rx="7" fill="#e9f0ed"/><path d="M50 112h48M50 132h37M50 152h44" stroke="#1d5b48" stroke-width="5"/><text x="73" y="205" text-anchor="middle" class="p">Type · satisfaction</text></g>
  <g transform="translate(990 130)"><rect width="180" height="235" rx="14" fill="#fff"/><circle cx="22" cy="22" r="15" fill="#c8f169"/><text x="22" y="27" text-anchor="middle" class="num">7</text><text x="90" y="65" text-anchor="middle" class="t">Route</text><g fill="#1d5b48"><circle cx="60" cy="112" r="18"/><circle cx="90" cy="102" r="20"/><circle cx="120" cy="112" r="18"/><path d="M36 163c0-26 48-26 48 0M58 166c0-35 64-35 64 0M96 163c0-26 48-26 48 0"/></g><text x="90" y="205" text-anchor="middle" class="p">Responsible team</text></g>
  <g transform="translate(30 405)"><rect width="550" height="190" rx="16" fill="#123a30" stroke="#2e5b4e"/><text x="25" y="34" class="dash">Monitoring &amp; quality</text><text x="25" y="71" class="metric">3,600+</text><text x="25" y="91" class="p" style="fill:#b9c8c3">daily inquiries</text><path d="M160 142l55-38 50 15 55-65 55 39 70-53" fill="none" stroke="#c8f169" stroke-width="4"/><path d="M160 156H505" stroke="#4e6f65"/></g>
  <g transform="translate(605 405)"><rect width="565" height="190" rx="16" fill="#fff"/><text x="25" y="34" class="t">Power BI VOC dashboard</text><g transform="translate(30 65)"><rect width="110" height="90" rx="8" fill="#e9f0ed"/><path d="M18 72V45M43 72V23M68 72V52M93 72V34" stroke="#1d5b48" stroke-width="10"/></g><g transform="translate(170 65)"><circle cx="45" cy="45" r="36" fill="none" stroke="#c8f169" stroke-width="14"/><path d="M45 9a36 36 0 0 1 32 52" fill="none" stroke="#1d5b48" stroke-width="14"/></g><text x="280" y="90" class="metric" style="fill:#1d5b48">4.2 / 5</text><text x="280" y="116" class="p">customer satisfaction</text><text x="280" y="147" class="p">trends · routing · workload</text></g>
</svg>
